<svg xmlns="http://www.w3.org/2000/svg" width="81.687" height="25.938" viewBox="0 0 81.687 25.938">
  <defs>
    <style>
      .cls-1 {
        fill: #436372;
        fill-rule: evenodd;
      }
    </style>
  </defs>
  <path id="Glee." class="cls-1" d="M156.342,82.172a8.7,8.7,0,0,0,3.744-3.384,9.978,9.978,0,0,0,1.314-5.22v-3.78a0.915,0.915,0,0,0-.234-0.648,0.82,0.82,0,0,0-.63-0.252h-8.6a0.835,0.835,0,0,0-.612.252,0.878,0.878,0,0,0-.252.648V71.7a0.876,0.876,0,0,0,.252.648,0.832,0.832,0,0,0,.612.252h4.392v1.116a5.989,5.989,0,0,1-.738,3.132,4.434,4.434,0,0,1-2.016,1.8,6.977,6.977,0,0,1-2.9.576,5.7,5.7,0,0,1-3.942-1.332,5.925,5.925,0,0,1-1.6-4.392q-0.108-3.2,0-6.336a5.779,5.779,0,0,1,1.566-4.284,5.664,5.664,0,0,1,3.906-1.3,6.233,6.233,0,0,1,2.7.5,4.854,4.854,0,0,1,1.656,1.242,5.332,5.332,0,0,1,.9,1.494,1.263,1.263,0,0,0,.324.432,0.852,0.852,0,0,0,.54.144h3.708A0.778,0.778,0,0,0,161,65.18a0.627,0.627,0,0,0,.18-0.54,5.452,5.452,0,0,0-.7-2.34,7.96,7.96,0,0,0-1.98-2.358,10.623,10.623,0,0,0-3.294-1.8,13.778,13.778,0,0,0-4.608-.7,12.633,12.633,0,0,0-5.6,1.152,8.47,8.47,0,0,0-3.636,3.276,10.5,10.5,0,0,0-1.386,5.112q-0.036,1.585-.036,3.366t0.036,3.33a10.891,10.891,0,0,0,1.386,5.2,8.4,8.4,0,0,0,3.6,3.33A12.571,12.571,0,0,0,150.6,83.36,12.942,12.942,0,0,0,156.342,82.172ZM169.428,83a0.86,0.86,0,0,0,.864-0.864V58.3a0.86,0.86,0,0,0-.864-0.864H166.44a0.86,0.86,0,0,0-.864.864V82.136a0.86,0.86,0,0,0,.864.864h2.988Zm17.262-.162a8.985,8.985,0,0,0,2.61-1.314,7,7,0,0,0,1.6-1.62,3.024,3.024,0,0,0,.594-1.4,0.605,0.605,0,0,0-.2-0.54,0.842,0.842,0,0,0-.594-0.216h-3.1a1.509,1.509,0,0,0-.594.09,1.718,1.718,0,0,0-.522.522,4.585,4.585,0,0,1-.612.648,4,4,0,0,1-2.808,1.008,3.459,3.459,0,0,1-2.106-.648,4.019,4.019,0,0,1-1.332-1.71,6.361,6.361,0,0,1-.486-2.322V75.044H191.1a0.876,0.876,0,0,0,.648-0.252A0.832,0.832,0,0,0,192,74.18V73.424a11.5,11.5,0,0,0-1.008-4.95A7.64,7.64,0,0,0,188,65.126a9.257,9.257,0,0,0-4.9-1.206,9.4,9.4,0,0,0-4.572,1.062,7.607,7.607,0,0,0-3.042,3.024,10.656,10.656,0,0,0-1.242,4.7,8.421,8.421,0,0,0-.036.882q0,0.559.036,0.918a9.371,9.371,0,0,0,2.52,6.552,8.637,8.637,0,0,0,6.336,2.3A11.323,11.323,0,0,0,186.69,82.838Zm-7.542-10.926a6.281,6.281,0,0,1,.45-2.466,3.623,3.623,0,0,1,1.35-1.656,4.224,4.224,0,0,1,4.32,0,3.735,3.735,0,0,1,1.368,1.656,6.068,6.068,0,0,1,.468,2.466V72.02h-7.956V71.912Zm28.278,10.926a8.985,8.985,0,0,0,2.61-1.314,7,7,0,0,0,1.6-1.62,3.024,3.024,0,0,0,.594-1.4,0.605,0.605,0,0,0-.2-0.54,0.842,0.842,0,0,0-.594-0.216h-3.1a1.509,1.509,0,0,0-.594.09,1.718,1.718,0,0,0-.522.522,4.585,4.585,0,0,1-.612.648,4,4,0,0,1-2.808,1.008,3.459,3.459,0,0,1-2.106-.648,4.019,4.019,0,0,1-1.332-1.71,6.361,6.361,0,0,1-.486-2.322V75.044h11.952a0.876,0.876,0,0,0,.648-0.252,0.832,0.832,0,0,0,.252-0.612V73.424a11.5,11.5,0,0,0-1.008-4.95,7.64,7.64,0,0,0-2.988-3.348,9.257,9.257,0,0,0-4.9-1.206,9.4,9.4,0,0,0-4.572,1.062,7.607,7.607,0,0,0-3.042,3.024,10.656,10.656,0,0,0-1.242,4.7,8.421,8.421,0,0,0-.036.882q0,0.559.036,0.918a9.371,9.371,0,0,0,2.52,6.552,8.637,8.637,0,0,0,6.336,2.3A11.323,11.323,0,0,0,207.426,82.838Zm-7.542-10.926a6.281,6.281,0,0,1,.45-2.466,3.623,3.623,0,0,1,1.35-1.656,4.224,4.224,0,0,1,4.32,0,3.735,3.735,0,0,1,1.368,1.656,6.068,6.068,0,0,1,.468,2.466V72.02h-7.956V71.912ZM220.764,83a0.86,0.86,0,0,0,.864-0.864V78.572a0.878,0.878,0,0,0-.252-0.648,0.835,0.835,0,0,0-.612-0.252h-3.6a0.835,0.835,0,0,0-.612.252,0.878,0.878,0,0,0-.252.648v3.564a0.86,0.86,0,0,0,.864.864h3.6Z" transform="translate(-139.938 -57.438)"/>
</svg>
